#!OML:ASF X:\für Bonn\!DataBase\2005_08_11_Bastian_Final\c3d\Bastian.ASF
:FULLY-SPECIFIED
:DEGREES
186
root 7.97688 16.2 -5.56045 92.6482 105.963 -620.996
lowerback 11.5815 -2.98897 10.367
upperback 7.22281 -2.52155 3.54372
thorax 0.859586 -0.821386 -1.80773
lowerneck -12.7473 4.64844 -5.00435
upperneck -1.88336 7.0187 -0.0751988
head 1.38325 3.57962 1.16847
rclavicle 1.5207e-014 -4.21423e-014
rhumerus -55.1136 7.83757 -85.4144
rradius 62.4932
rwrist 10.7388
rhand -22.6501 16.2385
rfingers 7.12502
rthumb 3.78101 -13.7077
lclavicle 1.5207e-014 -4.21423e-014
lhumerus -37.461 -18.6749 100.248
lradius 66.764
lwrist 16.9539
lhand -14.9536 -9.37552
lfingers 7.12502
lthumb 11.2095 20.305
rfemur -19.3554 -9.93857 28.3483
rtibia 51.7863
rfoot -20.9009 5.98257
rtoes -23.7778
lfemur -19.7066 3.9303 -10.6917
ltibia 102.822
lfoot -10.4437 1.26357
ltoes -16.8861
187
root 8.21419 16.1503 -5.53279 92.1281 105.979 -621.337
lowerback 11.9671 -2.79746 10.5522
upperback 7.2414 -2.18813 3.5035
thorax 0.700996 -0.650712 -1.97919
lowerneck -12.7726 4.59356 -4.95009
upperneck -1.91222 6.94274 -0.101366
head 1.38301 3.54257 1.148
rclavicle -2.8128e-014 5.88403e-014
rhumerus -53.4383 8.62604 -86.1111
rradius 62.872
rwrist 12.2263
rhand -22.0517 16.3928
rfingers 7.12502
rthumb 4.35887 -13.5423
lclavicle -2.8128e-014 5.88403e-014
lhumerus -38.0049 -18.2647 100.156
lradius 65.0109
lwrist 16.7417
lhand -16.5474 -8.44583
lfingers 7.12502
lthumb 9.67205 21.3121
rfemur -18.5286 -10.3555 28.2603
rtibia 52.489
rfoot -21.9856 5.89851
rtoes -24.1669
lfemur -21.7263 4.56258 -10.5377
ltibia 103.745
lfoot -11.281 1.18595
ltoes -17.4124
188
root 8.45237 16.1129 -5.50685 91.6372 105.872 -621.662
lowerback 12.3328 -2.56031 10.5655
upperback 7.22685 -1.81698 3.43228
thorax 0.526264 -0.470058 -2.0974
lowerneck -12.7402 4.52921 -4.87858
upperneck -1.88929 6.84714 -0.124084
head 1.39065 3.49377 1.12411
rclavicle -2.5842e-014 -5.56597e-015
rhumerus -51.9499 9.38979 -86.8406
rradius 63.5065
rwrist 13.6707
rhand -21.6578 16.6278
rfingers 7.12502
rthumb 4.73918 -13.2992
lclavicle -2.5842e-014 -5.56597e-015
lhumerus -38.7362 -17.9418 99.9938
lradius 63.6749
lwrist 16.7633
lhand -17.5664 -7.60597
lfingers 7.12502
lthumb 8.68876 22.1952
rfemur -17.5853 -10.7584 28.0273
rtibia 52.9627
rfoot -23.004 5.833
rtoes -24.5124
lfemur -23.7059 5.31529 -10.4673
ltibia 104.337
lfoot -12.0548 0.980907
ltoes -16.9811
189
root 8.69386 16.0935 -5.48364 91.14 105.655 -622.015
lowerback 12.639 -2.2716 10.4265
upperback 7.19378 -1.40627 3.34097
thorax 0.370376 -0.275409 -2.16264
lowerneck -12.6894 4.43384 -4.83755
upperneck -1.82159 6.71165 -0.088891
head 1.40807 3.4252 1.12254
rclavicle 5.66536e-015 5.40694e-014
rhumerus -50.6197 10.0882 -87.6226
rradius 64.3697
rwrist 14.8857
rhand -21.4685 17.0034
rfingers 7.12502
rthumb 4.92196 -12.9194
lclavicle 5.66536e-015 5.40694e-014
lhumerus -39.6758 -17.6444 99.7726
lradius 62.5276
lwrist 16.7521
lhand -18.0456 -7.18496
lfingers 7.12502
lthumb 8.22636 22.6349
rfemur -16.5255 -11.0471 27.6637
rtibia 53.2023
rfoot -23.8554 5.77119
rtoes -24.3539
lfemur -25.5955 5.94928 -10.5867
ltibia 104.528
lfoot -12.6822 0.765404
ltoes -15.7286
190
root 8.93786 16.0944 -5.46445 90.6552 105.362 -622.342
lowerback 12.9194 -1.94238 10.1667
upperback 7.17239 -0.962617 3.24432
thorax 0.244356 -0.0662585 -2.17433
lowerneck -12.6027 4.29798 -4.85
upperneck -1.80536 6.52804 -0.0434466
head 1.4017 3.3347 1.12857
rclavicle 1.17283e-014 2.46493e-014
rhumerus -49.4772 10.844 -88.4399
rradius 65.4975
rwrist 15.7215
rhand -21.5089 17.4447
rfingers 7.12502
rthumb 4.88301 -12.4791
lclavicle 1.17283e-014 2.46493e-014
lhumerus -40.7435 -17.3119 99.4734
lradius 61.5685
lwrist 16.7662
lhand -17.9985 -7.13696
lfingers 7.12502
lthumb 8.27175 22.6811
rfemur -15.3279 -11.2581 27.1988
rtibia 53.2068
rfoot -24.5401 5.77791
rtoes -23.8556
lfemur -27.3199 6.42335 -10.878
ltibia 104.309
lfoot -13.2981 0.570436
ltoes -14.4563
191
root 9.18353 16.1079 -5.4476 89.9508 105.011 -622.909
lowerback 13.158 -1.6017 9.87234
upperback 7.12868 -0.51737 3.11489
thorax 0.115252 0.141565 -2.20421
lowerneck -12.5478 4.14217 -4.87218
upperneck -1.69528 6.31922 0.0454549
head 1.43104 3.22985 1.15257
rclavicle -3.97569e-015 -3.02153e-014
rhumerus -48.6165 11.6177 -89.3427
rradius 66.8539
rwrist 16.1212
rhand -21.7899 17.9434
rfingers 7.12502
rthumb 4.61166 -11.9864
lclavicle -3.97569e-015 -3.02153e-014
lhumerus -41.8938 -17.0856 99.0812
lradius 60.894
lwrist 16.7427
lhand -17.5623 -7.20767
lfingers 7.12502
lthumb 8.69274 22.5933
rfemur -14.0112 -11.4739 26.6632
rtibia 52.9693
rfoot -25.1285 5.77789
rtoes -23.5169
lfemur -28.9578 6.87739 -11.2209
ltibia 103.752
lfoot -13.9333 0.201378
ltoes -13.5317
192
root 9.43317 16.136 -5.43366 89.2253 104.608 -623.518
lowerback 13.3198 -1.23244 9.54001
upperback 7.07395 -0.0530277 2.96709
thorax 0.0157998 0.35837 -2.23683
lowerneck -12.4114 3.95924 -4.90775
upperneck -1.62025 6.07051 0.150678
head 1.43516 3.10632 1.17874
rclavicle -4.77083e-015 0
rhumerus -48.0061 12.3138 -90.2336
rradius 68.3616
rwrist 16.2697
rhand -22.2731 18.4573
rfingers 7.12502
rthumb 4.1451 -11.4821
lclavicle -4.77083e-015 0
lhumerus -43.052 -16.9458 98.6547
lradius 60.4156
lwrist 16.5572
lhand -16.9501 -7.42474
lfingers 7.12502
lthumb 9.28352 22.3509
rfemur -12.5942 -11.6063 26.0716
rtibia 52.486
rfoot -25.6462 5.76463
rtoes -23.3614
lfemur -30.4744 7.35683 -11.6398
ltibia 102.867
lfoot -14.469 -0.194798
ltoes -13.1509
193
root 9.68402 16.1707 -5.42334 88.3249 104.181 -624.327
lowerback 13.4014 -0.869104 9.19976
upperback 7.0296 0.390035 2.81628
thorax -0.0337978 0.566923 -2.26569
lowerneck -12.3377 3.76797 -4.99066
upperneck -1.48744 5.82041 0.267448
head 1.46817 2.98102 1.22027
rclavicle -4.37326e-015 -1.59028e-015
rhumerus -47.2862 13.1067 -91.0914
rradius 69.5518
rwrist 16.1156
rhand -22.9832 18.9927
rfingers 7.12502
rthumb 3.45936 -10.959
lclavicle -4.37326e-015 -1.59028e-015
lhumerus -44.1655 -16.8944 98.2066
lradius 60.1312
lwrist 16.2711
lhand -16.2665 -7.73095
lfingers 7.12502
lthumb 9.94306 22.0142
rfemur -11.0646 -11.6505 25.4581
rtibia 51.7767
rfoot -26.084 5.73333
rtoes -23.0232
lfemur -31.8925 7.76419 -12.1237
ltibia 101.71
lfoot -14.9116 -0.568603
ltoes -13.2183
194
root 9.93984 16.2162 -5.41779 87.2132 103.747 -625.315
lowerback 13.4824 -0.508953 8.8772
upperback 6.96607 0.829652 2.64245
thorax -0.104625 0.773019 -2.32827
lowerneck -12.1689 3.569 -5.04825
upperneck -1.36877 5.54877 0.412719
head 1.4809 2.84551 1.26241
rclavicle -3.57812e-015 -9.54166e-015
rhumerus -46.6436 13.8679 -91.9088
rradius 70.7662
rwrist 15.7676
rhand -23.6768 19.3876
rfingers 7.12502
rthumb 2.78945 -10.5739
lclavicle -3.57812e-015 -9.54166e-015
lhumerus -45.2729 -16.9194 97.7355
lradius 60.0154
lwrist 15.8546
lhand -15.627 -8.04587
lfingers 7.12502
lthumb 10.5599 21.6688
rfemur -9.38649 -11.6332 24.839
rtibia 50.8555
rfoot -26.4565 5.57872
rtoes -22.9859
lfemur -33.1024 8.12274 -12.6483
ltibia 100.281
lfoot -15.3536 -0.874351
ltoes -14.1075
195
root 10.2008 16.2705 -5.416 85.869 103.321 -626.568
lowerback 13.4569 -0.157307 8.56514
upperback 6.90758 1.24533 2.46651
thorax -0.116247 0.969823 -2.39377
lowerneck -12.011 3.36713 -5.09186
upperneck -1.20413 5.27137 0.545008
head 1.51203 2.70534 1.29941
rclavicle -3.57812e-015 -9.54166e-015
rhumerus -46.1129 14.5051 -92.6241
rradius 72.1528
rwrist 15.3963
rhand -24.2176 19.5845
rfingers 7.12502
rthumb 2.26723 -10.3832
lclavicle -3.57812e-015 -9.54166e-015
lhumerus -46.303 -17.0416 97.277
lradius 60.0258
lwrist 15.3589
lhand -15.1503 -8.33761
lfingers 7.12502
lthumb 11.0198 21.3531
rfemur -7.63667 -11.5503 24.2527
rtibia 49.7372
rfoot -26.7078 5.27782
rtoes -23.379
lfemur -34.1843 8.42199 -13.1853
ltibia 98.5978
lfoot -15.6903 -1.16335
ltoes -14.4388
